<?xml version="1.0" standalone="no"?>
<!DOCTYPE svg PUBLIC "-//W3C//DTD SVG 20010904//EN"
 "http://www.w3.org/TR/2001/REC-SVG-20010904/DTD/svg10.dtd">
<svg version="1.0" xmlns="http://www.w3.org/2000/svg"
 width="800.000000pt" height="800.000000pt" viewBox="0 0 800.000000 800.000000"
 preserveAspectRatio="xMidYMid meet">

<g transform="translate(0.000000,800.000000) scale(0.100000,-0.100000)"
fill="#000000" stroke="none">
<path d="M2520 5824 c-744 -101 -1352 -646 -1535 -1377 -190 -760 122 -1556
780 -1987 609 -398 1418 -394 2021 10 116 78 273 210 339 285 32 36 55 68 53
71 -3 3 -82 5 -176 5 -116 0 -174 4 -185 12 -8 7 -41 48 -72 92 l-57 80 322 5
323 5 49 88 c27 48 47 94 44 102 -5 13 -68 15 -427 14 -232 0 -423 2 -426 5
-3 3 -20 42 -39 88 l-33 83 504 3 c468 2 505 3 513 20 5 9 17 48 27 85 l18 68
41 -40 c23 -22 66 -51 96 -65 47 -22 68 -26 150 -25 118 1 174 16 178 48 3 20
1 22 -20 15 -49 -15 -181 -7 -240 16 -184 69 -262 312 -187 582 28 99 72 179
137 245 67 68 27 49 -49 -24 -31 -29 -61 -53 -68 -53 -16 0 -57 -91 -73 -159
-6 -29 -16 -54 -22 -56 -6 -2 -23 -6 -38 -9 -54 -12 -82 -91 -127 -366 l-27
-165 -102 -3 c-102 -3 -103 -3 -97 20 9 38 72 444 90 583 10 72 19 136 21 143
2 8 30 12 95 12 l92 0 -5 -51 -5 -51 36 41 c40 45 101 75 133 65 19 -6 20 -3
14 32 -15 82 49 74 -577 74 -517 0 -559 1 -559 17 0 9 9 52 21 95 l21 78 509
0 c442 0 509 2 509 15 0 17 -58 166 -69 178 -4 4 -197 8 -428 7 -230 0 -422 3
-426 6 -7 7 43 112 75 157 l19 27 318 0 c175 0 321 3 324 6 3 4 -16 39 -43 78
-95 135 -63 120 -270 126 l-180 5 86 88 c99 102 102 87 -27 187 -385 297 -882
430 -1369 364z m-970 -1656 c0 -155 4 -278 8 -272 5 5 49 132 98 281 l89 273
159 0 c146 0 158 -1 154 -17 -3 -10 -38 -219 -79 -465 l-74 -448 -100 0 -101
0 53 328 c29 180 52 334 52 342 0 16 -11 -14 -154 -417 l-90 -253 -66 0 c-66
0 -67 0 -73 31 -3 17 -6 104 -6 193 0 167 -11 459 -16 441 -2 -6 -26 -147 -54
-315 -28 -168 -53 -315 -55 -327 -5 -22 -10 -23 -101 -23 -86 0 -95 2 -90 18
3 9 37 208 76 442 38 234 72 435 75 448 5 22 8 22 150 22 l145 0 0 -282z
m1885 190 c-4 -18 -9 -43 -12 -55 -5 -22 -2 -23 46 -23 58 0 56 6 37 -110
l-12 -75 -51 -3 c-50 -3 -53 -4 -58 -35 -3 -18 -14 -85 -25 -151 -33 -197 -26
-224 57 -214 l36 4 -7 -69 c-3 -38 -11 -77 -16 -87 -12 -22 -54 -32 -136 -33
-106 -1 -164 55 -164 159 0 29 25 201 55 382 30 182 55 333 55 336 0 3 45 6
101 6 l101 0 -7 -32z m-955 -84 c113 -36 154 -129 131 -296 -16 -114 -61 -408
-67 -435 -4 -22 -9 -23 -84 -23 l-80 0 0 35 0 35 -45 -35 c-73 -55 -180 -66
-253 -25 -131 73 -121 324 17 411 64 41 138 61 234 61 85 1 97 7 97 46 0 62
-89 84 -239 58 -52 -9 -96 -15 -98 -13 -2 3 2 40 9 83 l13 78 45 13 c112 33
231 36 320 7z m569 16 c46 -5 85 -11 87 -13 2 -2 -3 -41 -11 -88 -8 -46 -15
-84 -15 -85 0 -1 -43 1 -95 4 -114 6 -148 -8 -143 -60 3 -27 13 -36 88 -78
111 -62 134 -95 139 -201 9 -204 -116 -285 -398 -258 -58 5 -107 12 -110 14
-2 3 2 44 9 91 12 80 14 85 34 80 68 -20 173 -28 213 -17 83 23 83 85 0 127
-95 48 -134 81 -161 136 -30 59 -33 112 -12 182 33 110 104 154 281 175 6 0
48 -3 94 -9z m916 -20 c49 -21 96 -66 121 -117 15 -31 19 -60 19 -153 0 -63
-3 -127 -8 -142 l-7 -28 -201 0 -202 0 6 -36 c8 -50 32 -83 72 -100 49 -20
162 -18 236 6 35 10 65 17 67 15 4 -4 -3 -50 -24 -157 -6 -30 -20 -35 -135
-48 -139 -16 -265 17 -331 87 -94 99 -105 341 -22 504 82 164 255 235 409 169z"/>
<path d="M2270 3849 c-69 -21 -107 -88 -79 -140 16 -33 28 -39 71 -39 63 0
120 69 130 160 3 23 0 25 -42 27 -25 1 -61 -3 -80 -8z"/>
<path d="M3778 4102 c-23 -13 -68 -85 -68 -107 0 -3 50 -5 110 -5 l110 0 0 36
c0 75 -85 118 -152 76z"/>
<path d="M6647 4393 c-3 -5 -11 -43 -18 -86 -13 -75 -12 -78 8 -99 l22 -21 5
24 c12 52 26 144 26 166 0 16 -6 23 -19 23 -11 0 -22 -3 -24 -7z"/>
<path d="M4940 4263 c-27 -10 -88 -54 -94 -69 -5 -12 -1 -12 24 1 42 22 138
19 205 -6 31 -12 58 -19 60 -17 2 1 5 19 7 38 3 32 0 36 -32 47 -35 12 -142
16 -170 6z"/>
<path d="M5816 4221 c-3 -4 -19 -102 -36 -217 -16 -115 -41 -279 -55 -364 -13
-85 -25 -161 -25 -168 0 -10 24 -12 103 -10 l102 3 3 28 3 27 -75 0 c-42 0
-76 2 -76 4 0 3 20 132 45 288 25 156 48 313 51 351 7 63 6 67 -14 67 -11 0
-23 -4 -26 -9z"/>
<path d="M5214 4202 c-12 -8 -39 -160 -30 -169 3 -3 25 -1 48 5 127 31 256 23
278 -18 13 -24 55 -27 64 -4 32 84 -59 120 -232 90 -51 -9 -95 -16 -98 -16 -6
0 2 67 12 103 6 18 -20 24 -42 9z"/>
<path d="M6232 4166 c-22 -24 -48 -58 -56 -75 -12 -22 -24 -31 -42 -31 -15 0
-38 -12 -55 -29 -40 -40 -37 -53 7 -35 20 8 38 14 40 12 2 -2 -3 -22 -11 -45
-40 -116 -41 -259 -3 -360 23 -63 102 -139 154 -149 71 -13 151 0 197 33 l43
30 -4 -29 -4 -28 101 0 101 0 0 30 0 30 -71 0 -71 0 7 31 7 32 -43 -31 c-106
-76 -253 -55 -322 45 -46 67 -60 119 -59 228 0 142 47 277 125 363 11 12 16
22 10 22 -6 0 -29 -20 -51 -44z"/>
<path d="M6455 4082 c-16 -11 -36 -26 -43 -35 -12 -14 -10 -15 22 -10 43 7 78
-13 102 -59 20 -39 15 -173 -9 -230 -18 -44 -2 -43 30 1 54 72 72 235 33 299
-32 52 -84 65 -135 34z"/>
<path d="M5145 3848 c-42 -50 -62 -97 -46 -107 11 -7 11 -22 1 -80 -14 -83
-10 -108 26 -151 39 -46 74 -60 149 -60 74 0 114 14 164 56 l34 28 -7 -37 -7
-37 91 0 90 0 0 30 c0 30 -1 30 -55 30 l-55 0 0 36 0 36 -31 -26 c-75 -63
-192 -79 -267 -36 -85 48 -120 193 -72 299 11 24 19 46 16 48 -2 2 -16 -11
-31 -29z"/>
<path d="M5421 3850 c-18 -4 -45 -20 -59 -34 l-26 -25 72 6 72 6 0 -32 c0 -18
-5 -41 -11 -53 -13 -25 -4 -35 16 -18 24 20 53 81 56 120 l4 35 -45 2 c-25 1
-60 -2 -79 -7z"/>
</g>
</svg>
