<?xml version="1.0" standalone="no"?>
<!DOCTYPE svg PUBLIC "-//W3C//DTD SVG 20010904//EN"
 "http://www.w3.org/TR/2001/REC-SVG-20010904/DTD/svg10.dtd">
<svg version="1.0" xmlns="http://www.w3.org/2000/svg"
 width="800.000000pt" height="800.000000pt" viewBox="0 0 800.000000 800.000000"
 preserveAspectRatio="xMidYMid meet">

<g transform="translate(0.000000,800.000000) scale(0.100000,-0.100000)"
fill="#000000" stroke="none">
<path d="M4957 5270 c-508 -97 -809 -394 -810 -800 -1 -175 48 -288 182 -421
105 -104 166 -146 370 -253 233 -122 297 -171 334 -255 45 -102 -24 -222 -158
-275 -58 -23 -143 -35 -250 -36 -203 0 -360 35 -570 128 -49 22 -91 39 -91 38
-1 0 -12 -64 -23 -141 -12 -77 -32 -202 -45 -277 l-22 -138 54 -20 c84 -32
190 -58 329 -82 171 -30 498 -32 643 -5 450 84 738 328 805 680 44 232 -12
426 -168 585 -94 96 -180 154 -373 253 -183 95 -255 141 -306 197 -104 116
-23 259 173 307 58 14 99 17 222 12 168 -6 249 -22 391 -80 l83 -34 43 264
c36 223 41 266 29 274 -21 13 -162 55 -254 75 -123 27 -458 29 -588 4z"/>
<path d="M2275 5238 c-9 -25 -277 -747 -397 -1068 -44 -118 -111 -300 -149
-403 -38 -104 -73 -196 -78 -205 -11 -20 -9 -28 -56 201 -29 146 -41 182 -89
282 -56 118 -133 242 -214 350 -62 81 -230 253 -322 329 -94 77 -274 198 -278
186 -2 -6 215 -839 362 -1385 14 -49 41 -151 60 -225 62 -234 136 -514 142
-533 5 -16 28 -17 347 -15 l342 3 53 130 c29 72 104 256 167 410 63 154 170
417 238 585 68 168 181 445 250 615 69 171 158 389 197 485 40 96 80 196 91
223 l19 47 -340 0 c-264 0 -342 -3 -345 -12z"/>
<path d="M3225 5238 c-2 -7 -20 -114 -40 -238 -19 -124 -53 -335 -75 -470 -22
-135 -58 -357 -80 -495 -57 -353 -84 -518 -125 -770 -20 -121 -45 -276 -56
-345 -11 -69 -22 -135 -24 -147 l-5 -23 323 0 323 0 12 73 c6 39 30 185 52
322 58 365 125 779 165 1025 48 297 111 685 141 870 13 85 27 167 30 183 l6
27 -322 0 c-248 0 -322 -3 -325 -12z"/>
<path d="M6850 5234 c-124 -33 -166 -82 -256 -300 -20 -49 -68 -163 -106 -254
-38 -91 -85 -201 -103 -245 -37 -87 -225 -539 -282 -675 -20 -47 -55 -130 -78
-185 -23 -55 -93 -221 -155 -370 -62 -148 -125 -300 -141 -336 -15 -36 -33
-77 -38 -92 l-11 -27 338 0 338 0 65 183 65 182 420 3 420 2 28 -137 c15 -76
32 -159 38 -185 l10 -48 297 0 298 0 -24 113 c-13 61 -41 198 -63 302 -21 105
-57 278 -80 385 -22 107 -47 227 -55 265 -8 39 -23 115 -35 170 -25 115 -84
397 -140 670 -22 105 -51 244 -65 310 -14 66 -33 157 -42 203 l-16 82 -286 -1
c-219 0 -299 -4 -341 -15z m183 -706 c3 -18 18 -87 32 -153 14 -66 34 -163 45
-215 25 -128 98 -480 105 -507 l5 -23 -271 0 c-254 0 -271 1 -266 18 3 9 20
58 38 108 19 50 93 252 164 448 72 196 133 356 136 356 4 0 9 -15 12 -32z"/>
</g>
</svg>
